<?xml version="1.0" standalone="no"?>
<!DOCTYPE svg PUBLIC "-//W3C//DTD SVG 20010904//EN"
 "http://www.w3.org/TR/2001/REC-SVG-20010904/DTD/svg10.dtd">
<svg version="1.0" xmlns="http://www.w3.org/2000/svg"
 width="1280.000000pt" height="724.000000pt" viewBox="0 0 1280.000000 724.000000"
 preserveAspectRatio="xMidYMid meet">
<g transform="translate(0.000000,724.000000) scale(0.100000,-0.100000)"
fill="#000000" stroke="none">
<path d="M1193 7219 c-45 -10 -97 -25 -115 -34 -39 -18 -310 -226 -315 -240
-1 -5 769 -496 1713 -1089 l1715 -1079 362 -369 c199 -203 363 -377 365 -386
2 -15 -35 -25 -275 -70 -153 -29 -503 -95 -778 -147 -275 -52 -505 -95 -512
-95 -6 0 -209 213 -450 473 -242 259 -455 487 -473 505 -81 81 -267 193 -344
207 -33 7 -272 -27 -321 -46 -20 -7 -21 -10 -9 -145 7 -77 24 -278 38 -449 15
-170 29 -331 32 -357 5 -37 2 -49 -9 -54 -8 -3 -305 132 -663 302 -357 169
-676 316 -709 326 -136 44 -325 15 -406 -62 -23 -21 -39 -43 -38 -49 2 -6 299
-285 659 -621 360 -337 664 -620 675 -631 20 -20 20 -20 -22 -57 -52 -45 -73
-94 -73 -166 0 -47 4 -57 26 -75 40 -32 147 -61 264 -72 58 -6 114 -13 125
-15 12 -3 137 -161 330 -420 171 -229 321 -423 334 -432 35 -24 150 -20 224 8
103 39 98 28 177 365 39 165 76 305 83 312 9 9 57 9 217 -2 353 -24 755 -35
1320 -35 696 0 1009 13 1505 61 110 10 214 19 231 19 27 0 84 -47 410 -336
209 -184 387 -345 397 -356 16 -19 17 -80 17 -965 0 -896 1 -945 18 -938 9 3
105 15 213 25 108 10 216 24 240 30 102 27 194 111 250 228 17 37 306 666 641
1397 335 732 615 1336 622 1343 7 7 87 23 187 37 606 82 1433 253 2044 423
912 254 1491 550 1630 835 58 120 63 153 37 242 -28 96 -62 147 -130 195 -75
54 -165 89 -407 160 -219 64 -319 101 -467 176 -118 59 -211 82 -388 95 -300
22 -511 -17 -885 -161 -164 -64 -96 -49 -1105 -239 -1042 -197 -1174 -221
-1189 -221 -19 0 26 -17 -1376 528 -594 231 -2061 801 -3260 1267 -1199 466
-2193 853 -2209 861 -37 18 -70 16 -173 -7z"/>
</g>
</svg>
